<svg width="17" height="16" viewBox="0 0 17 16" fill="none" xmlns="http://www.w3.org/2000/svg">
<mask id="mask0_192_738" style="mask-type:alpha" maskUnits="userSpaceOnUse" x="0" y="0" width="17" height="16">
<rect x="0.5" width="16" height="16" fill="#D9D9D9"/>
</mask>
<g mask="url(#mask0_192_738)">
<path d="M4.49996 14C3.99996 14 3.50552 13.8778 3.01663 13.6333C2.52774 13.3889 2.1333 13.0667 1.8333 12.6667C2.12219 12.6667 2.41663 12.5529 2.71663 12.3253C3.01663 12.0973 3.16663 11.7667 3.16663 11.3333C3.16663 10.7778 3.36108 10.3056 3.74996 9.91667C4.13885 9.52778 4.61108 9.33333 5.16663 9.33333C5.72219 9.33333 6.19441 9.52778 6.5833 9.91667C6.97219 10.3056 7.16663 10.7778 7.16663 11.3333C7.16663 12.0667 6.90552 12.6944 6.3833 13.2167C5.86107 13.7389 5.2333 14 4.49996 14ZM4.49996 12.6667C4.86663 12.6667 5.18041 12.5362 5.4413 12.2753C5.70263 12.014 5.8333 11.7 5.8333 11.3333C5.8333 11.1444 5.76952 10.9862 5.64196 10.8587C5.51396 10.7307 5.35552 10.6667 5.16663 10.6667C4.97774 10.6667 4.8193 10.7307 4.6913 10.8587C4.56374 10.9862 4.49996 11.1444 4.49996 11.3333C4.49996 11.5889 4.46952 11.8222 4.40863 12.0333C4.3473 12.2444 4.26663 12.4444 4.16663 12.6333C4.22219 12.6556 4.27774 12.6667 4.3333 12.6667H4.49996ZM8.3333 10L6.49996 8.16667L12.4666 2.2C12.5889 2.07778 12.7417 2.01378 12.9253 2.008C13.1084 2.00266 13.2666 2.06666 13.4 2.2L14.3 3.1C14.4333 3.23333 14.5 3.38889 14.5 3.56666C14.5 3.74444 14.4333 3.9 14.3 4.03333L8.3333 10Z" fill="#1C1B1F"/>
</g>
</svg>
