<svg width="20" height="19" viewBox="0 0 20 19" fill="none" xmlns="http://www.w3.org/2000/svg">
<path d="M2 15V17H18V15H2ZM2 4H4.2C4.11667 3.85 4.06233 3.69167 4.037 3.525C4.01233 3.35833 4 3.18333 4 3C4 2.16667 4.29167 1.45833 4.875 0.875C5.45833 0.291667 6.16667 0 7 0C7.5 0 7.96233 0.129 8.387 0.387C8.81233 0.645667 9.18333 0.966667 9.5 1.35L10 2L10.5 1.35C10.8 0.95 11.1667 0.625 11.6 0.375C12.0333 0.125 12.5 0 13 0C13.8333 0 14.5417 0.291667 15.125 0.875C15.7083 1.45833 16 2.16667 16 3C16 3.18333 15.9873 3.35833 15.962 3.525C15.9373 3.69167 15.8833 3.85 15.8 4H18C18.55 4 19.021 4.196 19.413 4.588C19.8043 4.97933 20 5.45 20 6V17C20 17.55 19.8043 18.021 19.413 18.413C19.021 18.8043 18.55 19 18 19H2C1.45 19 0.979333 18.8043 0.588 18.413C0.196 18.021 0 17.55 0 17V6C0 5.45 0.196 4.97933 0.588 4.588C0.979333 4.196 1.45 4 2 4ZM2 12H18V6H12.9L15 8.85L13.4 10L10 5.4L6.6 10L5 8.85L7.05 6H2V12ZM7 4C7.28333 4 7.521 3.90433 7.713 3.713C7.90433 3.521 8 3.28333 8 3C8 2.71667 7.90433 2.479 7.713 2.287C7.521 2.09567 7.28333 2 7 2C6.71667 2 6.47933 2.09567 6.288 2.287C6.096 2.479 6 2.71667 6 3C6 3.28333 6.096 3.521 6.288 3.713C6.47933 3.90433 6.71667 4 7 4ZM13 4C13.2833 4 13.521 3.90433 13.713 3.713C13.9043 3.521 14 3.28333 14 3C14 2.71667 13.9043 2.479 13.713 2.287C13.521 2.09567 13.2833 2 13 2C12.7167 2 12.4793 2.09567 12.288 2.287C12.096 2.479 12 2.71667 12 3C12 3.28333 12.096 3.521 12.288 3.713C12.4793 3.90433 12.7167 4 13 4Z" fill="black"/>
</svg>
