<svg width="13" height="12" viewBox="0 0 13 12" fill="none" xmlns="http://www.w3.org/2000/svg">
<path d="M11.8333 6C11.6556 6 11.4973 5.936 11.3587 5.808C11.2196 5.68044 11.1389 5.52222 11.1167 5.33333C10.9722 4.3 10.5362 3.41933 9.80867 2.69133C9.08067 1.96378 8.2 1.52778 7.16667 1.38333C6.97778 1.36111 6.81956 1.28333 6.692 1.15C6.564 1.01667 6.5 0.855556 6.5 0.666667C6.5 0.477778 6.56667 0.319333 6.7 0.191333C6.83333 0.0637777 6.98889 0.0111111 7.16667 0.0333333C8.56667 0.188889 9.76111 0.761111 10.75 1.75C11.7389 2.73889 12.3111 3.93333 12.4667 5.33333C12.4889 5.51111 12.436 5.66667 12.308 5.8C12.1804 5.93333 12.0222 6 11.8333 6ZM9.05 6C8.90556 6 8.77778 5.95 8.66667 5.85C8.55556 5.75 8.47222 5.61667 8.41667 5.45C8.32778 5.12778 8.15844 4.84156 7.90867 4.59133C7.65844 4.34156 7.37222 4.17222 7.05 4.08333C6.88333 4.02778 6.75 3.94444 6.65 3.83333C6.55 3.72222 6.5 3.58889 6.5 3.43333C6.5 3.21111 6.57778 3.03044 6.73333 2.89133C6.88889 2.75267 7.06111 2.70556 7.25 2.75C7.87222 2.89444 8.40844 3.19156 8.85867 3.64133C9.30844 4.09156 9.60556 4.62778 9.75 5.25C9.79445 5.43889 9.74444 5.61111 9.6 5.76667C9.45556 5.92222 9.27222 6 9.05 6ZM11.8 12C10.3667 12 8.96956 11.6804 7.60867 11.0413C6.24733 10.4027 5.04178 9.55822 3.992 8.508C2.94178 7.45822 2.09733 6.25267 1.45867 4.89133C0.819556 3.53044 0.5 2.13333 0.5 0.7C0.5 0.5 0.566667 0.333333 0.7 0.2C0.833333 0.0666666 1 0 1.2 0H3.9C4.05556 0 4.19444 0.0499999 4.31667 0.15C4.43889 0.25 4.51111 0.377778 4.53333 0.533333L4.96667 2.86667C4.98889 3.02222 4.98622 3.16378 4.95867 3.29133C4.93067 3.41933 4.86667 3.53333 4.76667 3.63333L3.16667 5.26667C3.63333 6.06667 4.21667 6.81667 4.91667 7.51667C5.61667 8.21667 6.38889 8.82222 7.23333 9.33333L8.8 7.76667C8.9 7.66667 9.03067 7.59156 9.192 7.54133C9.35289 7.49156 9.51111 7.47778 9.66667 7.5L11.9667 7.96667C12.1222 8 12.25 8.07489 12.35 8.19133C12.45 8.30822 12.5 8.44444 12.5 8.6V11.3C12.5 11.5 12.4333 11.6667 12.3 11.8C12.1667 11.9333 12 12 11.8 12ZM2.53333 4L3.63333 2.9L3.33333 1.33333H1.86667C1.92222 1.78889 2 2.23889 2.1 2.68333C2.2 3.12778 2.34444 3.56667 2.53333 4ZM11.1667 10.6333V9.16667L9.6 8.83333L8.5 9.93333C8.93333 10.1222 9.37222 10.2778 9.81667 10.4C10.2611 10.5222 10.7111 10.6 11.1667 10.6333Z" fill="#1C1B1F"/>
</svg>
