<svg width="126" height="20" viewBox="0 0 126 20" fill="none" xmlns="http://www.w3.org/2000/svg">
<path fill-rule="evenodd" clip-rule="evenodd" d="M15.7369 4.51605C16.1573 3.91263 16.6539 3.19979 18.2386 4.74598L18.237 4.74748C16.9012 3.92242 16.1713 4.80828 15.4748 5.65369C15.0466 6.17336 14.631 6.67775 14.095 6.76009C13.5956 6.83694 13.4122 6.20094 13.2519 5.64511C13.1145 5.16899 12.9942 4.75169 12.7067 4.89167C11.656 5.40436 12.9461 8.69999 14.3551 11.1897C10.4889 13.1767 6.33631 12.1007 5.43462 11.8277C5.76842 8.95719 6.89564 4.49912 11.7272 1.64897C13.521 0.590093 16.35 1.47925 15.5503 2.66278C15.4175 2.85981 15.2888 3.04176 15.1698 3.21019C14.5519 4.08429 14.1912 4.59454 14.8259 4.96226C15.2535 5.21002 15.4811 4.8833 15.7369 4.51605ZM5.00024 13.463C4.65322 13.4083 4.28336 13.3428 3.90793 13.2763C1.99983 12.9382 -0.0523565 12.5745 0.0166282 13.4817C-0.00921303 13.5997 -0.0055412 13.7416 0.0319033 13.9109C0.448882 15.7943 3.35629 17.3068 4.9915 17.5126C8.05468 17.8991 8.84881 17.5348 13.6416 15.3359L13.6433 15.3351C13.9901 15.176 14.3578 15.0073 14.7488 14.8286C17.2355 13.6929 18.7976 13.6183 19.8079 13.57C20.3435 13.5443 20.7241 13.5262 21.0051 13.3612C21.1473 13.2153 21.1952 13.0758 21.1701 12.9438C21.2454 12.4579 19.0631 11.3685 17.5466 11.3079C16.6336 11.2713 15.7749 11.3088 14.9671 11.397L15.5705 12.544C15.5705 12.544 15.3791 14.3268 10.5929 14.8314C5.84475 15.3319 4.91761 14.1307 4.90253 14.1107L5.00024 13.463ZM4.90253 14.1107C4.90241 14.1106 4.90234 14.1105 4.90234 14.1105V14.112L4.90253 14.1107Z" fill="#5533CC"/>
<path d="M40.4487 4.92748C40.3931 4.2638 40.2097 3.76684 39.8987 3.43339C39.5876 3.09995 39.0638 2.81459 38.3304 2.57733C37.9506 2.44588 37.3679 2.33687 36.5821 2.25992C35.7963 2.17976 34.9549 2.12847 34.0578 2.09961C33.164 2.09961 32.28 2.13167 31.4124 2.199C30.5448 2.26633 29.8507 2.37855 29.3367 2.53886C28.875 2.67352 28.5149 2.89796 28.2595 3.21537C28.0009 3.53599 27.8044 3.8534 27.6702 4.17082C27.5065 4.54274 27.4115 4.95313 27.3853 5.40521C27.2216 6.83838 27.1562 8.12086 27.1824 9.24944C27.2085 10.378 27.3035 11.4617 27.4672 12.4973C27.5752 13.1899 27.8535 13.674 28.3021 13.9529C28.7506 14.2319 29.2024 14.4114 29.6641 14.4916C30.2599 14.5974 30.9606 14.6711 31.7594 14.7096C32.5583 14.7481 33.3801 14.7705 34.2215 14.7705C35.0629 14.7705 35.8422 14.7385 36.641 14.6711C37.4399 14.6038 38.1667 14.5172 38.8182 14.4114C39.2799 14.3313 39.6237 14.0587 39.8561 13.5938C40.0853 13.1289 40.2294 12.632 40.285 12.0998C40.4192 10.9038 40.5077 9.76885 40.5502 8.69156C40.5895 7.61428 40.5568 6.36065 40.4487 4.92428V4.92748ZM36.5526 8.53766C36.5363 8.9705 36.5002 9.4322 36.4446 9.91313C36.4217 10.1279 36.366 10.3299 36.2711 10.5159C36.1794 10.7051 36.0386 10.8141 35.852 10.8461C35.5901 10.8878 35.2954 10.9231 34.9713 10.9519C34.6471 10.9776 34.323 10.9904 33.9923 10.9904C33.6617 10.9904 33.3212 10.984 32.997 10.968C32.6729 10.9519 32.3913 10.9231 32.1523 10.8782C31.9657 10.8461 31.7824 10.7724 31.6023 10.6602C31.4222 10.548 31.3076 10.3524 31.2651 10.0734C31.1996 9.65342 31.1603 9.21738 31.1505 8.7621C31.1407 8.30682 31.1668 7.78741 31.2323 7.2103C31.2421 7.02754 31.2814 6.86082 31.3469 6.71334C31.4026 6.58509 31.4812 6.45684 31.5859 6.32539C31.6907 6.19714 31.8347 6.10416 32.0214 6.05286C32.2309 5.98873 32.5092 5.94385 32.8595 5.91499C33.2098 5.88934 33.5667 5.87331 33.9268 5.87331C34.2903 5.88613 34.6275 5.90538 34.9451 5.93744C35.2627 5.9695 35.4984 6.01118 35.6523 6.06568C35.9469 6.16187 36.1597 6.27729 36.2841 6.41195C36.4086 6.54661 36.4839 6.7454 36.5068 7.01472C36.5493 7.59504 36.5657 8.10162 36.5461 8.53446L36.5526 8.53766Z" fill="#5533CC"/>
<path d="M49.4179 7.35194C49.1069 7.21728 48.7926 7.14995 48.4685 7.14995H46.2945V6.33878C46.2945 5.16852 46.2716 3.88283 46.2257 2.48493C46.2028 1.92384 46.0719 1.4365 45.8296 1.03252C45.5873 0.625329 45.0405 0.42334 44.1893 0.42334C43.5214 0.42334 43.0499 0.622123 42.7749 1.01328C42.4999 1.40764 42.3722 1.89819 42.3951 2.48172C42.418 3.42755 42.4344 4.4888 42.4475 5.65907C42.4606 6.83254 42.4639 8.02524 42.4639 9.24039C42.4639 10.4555 42.4475 11.6611 42.4115 12.857C42.3755 14.0529 42.3362 15.1687 42.2904 16.2043C42.2674 16.6756 42.418 17.0828 42.7389 17.4194C43.0598 17.7561 43.5214 17.926 44.1205 17.926C44.7197 17.926 45.1846 17.7561 45.5186 17.4194C45.8525 17.0828 46.0424 16.6531 46.0882 16.1337C46.157 14.9859 46.2094 13.8926 46.2421 12.8538C46.2781 11.8182 46.2945 10.7698 46.2945 9.71171V9.60911H48.3997C48.8613 9.60911 49.2215 9.52895 49.4867 9.37185C49.7519 9.21474 49.8828 8.88771 49.8828 8.39075C49.8828 7.82646 49.729 7.47698 49.4179 7.34232V7.35194Z" fill="#5533CC"/>
<path d="M61.0141 10.2978C61.3447 10.192 61.6885 10.1696 62.0519 10.2337C62.4154 10.2978 62.6838 10.5351 62.8606 10.9423C62.9687 11.1987 62.9818 11.5194 62.8934 11.8945C62.805 12.2696 62.543 12.5357 62.1043 12.6864C61.7966 12.7954 61.3415 12.8948 60.7358 12.9942C60.1301 13.0904 59.4556 13.1609 58.7092 13.2026C57.9627 13.2668 57.1867 13.2956 56.3846 13.2828C55.5825 13.2732 54.8425 13.2026 54.1615 13.0744C53.2841 12.9012 52.6293 12.5422 52.2004 11.9939C51.7715 11.4456 51.5128 10.8589 51.4244 10.2337C51.2935 9.24617 51.2804 8.24263 51.3917 7.23268C51.4997 6.22273 51.6667 5.3827 51.8861 4.71581C52.1284 4.02648 52.423 3.55517 52.7766 3.29546C53.1269 3.03897 53.5231 2.92996 53.9618 2.97164C54.6003 3.01652 55.0488 3.19287 55.314 3.50387C55.5759 3.81487 55.7101 4.24129 55.7101 4.77994C55.7101 5.46927 55.6152 6.18425 55.4286 6.92488C55.242 7.66551 55.1601 8.44783 55.183 9.26541C55.2059 9.63092 55.2878 9.94192 55.4286 10.2016C55.5726 10.4613 55.8509 10.6216 56.27 10.6858C56.7087 10.7499 57.1704 10.7787 57.6549 10.7659C58.1362 10.7563 58.5978 10.7274 59.0398 10.6858C59.4556 10.6441 59.842 10.5832 60.1923 10.5094C60.5426 10.4357 60.8176 10.3651 61.0173 10.301L61.0141 10.2978ZM68.5705 2.39131C68.6131 3.72509 68.6426 4.95307 68.6524 6.06883C68.6622 7.18779 68.6687 8.25225 68.6687 9.26221C68.6458 10.2946 68.6196 11.3046 68.5869 12.2953C68.5542 13.286 68.5051 14.328 68.4396 15.4245C68.397 15.9183 68.2137 16.3287 67.8961 16.6525C67.5785 16.9763 67.1332 17.1366 66.5603 17.1366C65.9873 17.1366 65.5486 16.9763 65.2408 16.6525C64.9331 16.3287 64.789 15.9439 64.8119 15.4919C64.8545 14.5011 64.8872 13.4367 64.9102 12.2985C64.9527 11.3527 64.9756 10.3844 64.9756 9.39366H61.6132C61.1745 9.39366 60.8667 9.29106 60.6899 9.08586C60.5131 8.88067 60.428 8.5857 60.428 8.19774C60.428 7.83224 60.5164 7.54689 60.6899 7.34169C60.8667 7.13649 61.1057 7.0339 61.4135 7.0339H64.9396V5.54942H61.6099C61.1712 5.54942 60.8635 5.44682 60.6867 5.24163C60.5099 5.03643 60.4247 4.75108 60.4247 4.38557C60.4247 3.99762 60.5131 3.70265 60.6867 3.49745C60.8635 3.29226 61.1025 3.18966 61.4102 3.18966H64.9036V2.3817C64.8807 1.82382 65.0018 1.35571 65.267 0.977378C65.529 0.602253 65.9808 0.413086 66.6192 0.413086C67.4312 0.413086 67.955 0.60546 68.1842 0.99341C68.4134 1.38136 68.5411 1.84305 68.564 2.3817L68.5705 2.39131Z" fill="#5533CC"/>
<path d="M72.2665 14.9115C73.9362 15.0622 75.5831 15.1712 77.2103 15.2353V11.3301C77.2103 11.0512 77.2659 10.7755 77.374 10.5062C77.482 10.2368 77.8127 10.1022 78.3627 10.1022C78.9128 10.1022 79.2402 10.2432 79.3515 10.5222C79.4595 10.8011 79.5152 11.0704 79.5152 11.3301V15.2994H80.4712C83.1297 15.3219 85.8308 15.1936 88.5777 14.9115C89.2161 14.8474 89.6483 14.9339 89.8808 15.1712C90.1099 15.4084 90.2376 15.6778 90.2606 15.9791C90.2835 16.4088 90.1656 16.7262 89.9135 16.9314C89.6614 17.1366 89.2816 17.2584 88.7774 17.3033C87.7003 17.4123 86.443 17.4925 85.0057 17.5438C83.5652 17.5983 82.0886 17.6239 80.5727 17.6239C79.0568 17.6239 77.518 17.5983 76.0251 17.5438C74.5321 17.4893 73.193 17.4091 72.0046 17.3033C71.8736 17.3033 71.723 17.2873 71.5593 17.2552C71.3956 17.2231 71.245 17.1654 71.114 17.0789C70.9601 16.9923 70.8325 16.8737 70.7342 16.723C70.636 16.5723 70.5869 16.3671 70.5869 16.1106C70.5869 15.8317 70.6426 15.604 70.7506 15.4341C70.8619 15.261 71.0027 15.1327 71.1795 15.0461C71.3334 14.982 71.5102 14.9403 71.7066 14.9179C71.9031 14.8954 72.0897 14.8954 72.2665 14.9179V14.9115ZM83.3392 1.16649C84.3509 1.21137 85.009 1.47749 85.3168 1.97445C85.6245 2.4682 85.7784 3.08379 85.7784 3.81481C85.7784 4.18031 85.762 4.65484 85.7293 5.23516C85.6966 5.81548 85.6474 6.40863 85.582 7.01139C85.5165 7.6366 85.4445 8.23295 85.3692 8.80366C85.2906 9.37436 85.2218 9.84247 85.1563 10.208C85.0254 10.8749 84.7733 11.3366 84.4 11.5963C84.0268 11.856 83.6437 11.9842 83.2476 11.9842C83.0511 11.9842 82.8416 11.9586 82.6222 11.9041C82.4029 11.8496 82.2032 11.7598 82.0296 11.6283C81.8528 11.5001 81.7121 11.3173 81.6007 11.0801C81.4894 10.8428 81.437 10.5414 81.437 10.1759C81.437 9.89697 81.46 9.56353 81.5025 9.17558C81.5451 8.81007 81.5909 8.43494 81.6335 8.04699L76.395 7.95081C76.1331 7.95081 75.8745 7.87066 75.6191 7.71035C75.367 7.55004 75.2524 7.28713 75.272 6.91841C75.272 6.55291 75.3932 6.28359 75.6355 6.11045C75.8777 5.93731 76.1167 5.85395 76.359 5.85395L81.8954 5.9822V5.59425C81.8954 5.37944 81.879 5.16462 81.8463 4.94981C81.8136 4.73499 81.7415 4.54261 81.6335 4.36948C81.5222 4.19634 81.365 4.05207 81.1555 3.93344C80.9459 3.81481 80.6775 3.7571 80.3501 3.7571C79.2958 3.71542 78.3562 3.69938 77.5311 3.709C76.7061 3.72183 76.0644 3.67053 75.6027 3.56472C75.1411 3.45892 74.8333 3.25693 74.6795 2.96837C74.5256 2.67661 74.5026 2.34957 74.614 1.98407C74.8104 1.29473 75.3375 0.99335 76.1953 1.07992C76.657 1.1216 77.2921 1.15687 78.1074 1.1761C78.9193 1.19855 79.7116 1.20817 80.481 1.20817C81.3814 1.20817 82.3374 1.19855 83.3491 1.1761L83.3392 1.16649Z" fill="#5533CC"/>
<path d="M98.7421 3.41786C98.7028 2.94014 98.5947 2.60028 98.4212 2.39829C98.2444 2.1963 97.8941 2.01034 97.367 1.84041C97.0919 1.74423 96.6696 1.66728 96.0934 1.60956C95.5171 1.55185 94.8983 1.51338 94.2337 1.49414C93.5691 1.49414 92.9143 1.51979 92.2693 1.56468C91.6243 1.61277 91.1168 1.69293 90.7469 1.80835C90.4162 1.90454 90.1575 2.06805 89.9709 2.29569C89.7843 2.52333 89.6435 2.75418 89.5453 2.98503C89.4274 3.25435 89.3587 3.54932 89.339 3.87635C89.2212 4.88951 89.1721 5.7616 89.1917 6.4862C89.2114 7.21401 89.2801 7.95143 89.398 8.69527C89.4766 9.19223 89.6763 9.54171 90.0004 9.7437C90.3212 9.94569 90.6487 10.0739 90.9826 10.1316C91.4115 10.2086 91.9157 10.2663 92.4919 10.3048C93.0682 10.3433 93.6575 10.3625 94.2632 10.3625C94.8689 10.3625 95.4582 10.3401 96.0344 10.292C96.6107 10.2439 97.1345 10.1733 97.6027 10.0771C98.2084 9.96172 98.5489 9.59942 98.6275 8.98704C98.7257 8.12457 98.7944 7.2621 98.8337 6.39001C98.873 5.52113 98.8436 4.53042 98.7453 3.42107L98.7421 3.41786ZM95.9853 6.11428C95.9689 6.47017 95.9428 6.82605 95.9002 7.17553C95.8675 7.42561 95.7267 7.57631 95.4811 7.6212C95.288 7.65967 95.0751 7.68852 94.8394 7.70776C94.6037 7.727 94.3614 7.73662 94.1159 7.73662C93.8703 7.73662 93.6247 7.73021 93.389 7.71417C93.1533 7.69814 92.947 7.6757 92.7702 7.64364C92.636 7.62119 92.5018 7.56669 92.3675 7.48653C92.2366 7.40317 92.1547 7.2621 92.122 7.0569C92.0729 6.75231 92.0467 6.45093 92.0368 6.15276C92.0303 5.85458 92.0499 5.49869 92.0958 5.08509C92.1023 4.95043 92.1318 4.8318 92.1809 4.72279C92.2202 4.62981 92.2791 4.53362 92.3544 4.44064C92.4297 4.34766 92.5345 4.28033 92.672 4.24186C92.8226 4.19376 93.0321 4.1617 93.2941 4.14246C93.5593 4.12323 93.8245 4.11361 94.0962 4.11361C94.368 4.12323 94.62 4.13605 94.8591 4.1617C95.0948 4.18414 95.2683 4.21621 95.3796 4.25468C95.5957 4.32522 95.7398 4.40217 95.8118 4.48232C95.8838 4.56568 95.9264 4.70355 95.9428 4.89913C95.9821 5.3512 95.9951 5.75839 95.9788 6.11428H95.9853Z" fill="#5533CC"/>
<path d="M104.21 13.6582C104.161 13.4466 104.079 13.2478 103.961 13.0554C103.844 12.8823 103.667 12.7316 103.434 12.5969C103.199 12.4623 102.888 12.3853 102.498 12.3693C102.089 12.35 101.614 12.3308 101.077 12.3116C100.54 12.2923 99.9868 12.2827 99.4203 12.2827C98.8539 12.2827 98.3006 12.2891 97.7637 12.2955C97.2267 12.3052 96.7422 12.3212 96.3133 12.3404C95.9433 12.3789 95.6389 12.4655 95.4064 12.5969C95.1707 12.7316 95.0266 12.9592 94.9677 13.2863C94.9087 13.6293 94.9611 13.9467 95.1281 14.2321C95.2951 14.5174 95.5341 14.6906 95.8451 14.7483C96.1758 14.806 96.6767 14.806 97.3381 14.7483C98.0027 14.6906 98.8408 14.7002 99.8591 14.7771C100.268 14.8156 100.553 14.9407 100.71 15.1491C100.867 15.3607 100.936 15.6653 100.917 16.066C100.897 16.5053 100.874 16.9445 100.845 17.387C100.815 17.8262 100.792 18.2174 100.773 18.5637C100.773 18.7945 100.822 18.9997 100.92 19.1793C101.018 19.362 101.156 19.5191 101.329 19.6538C101.486 19.7692 101.666 19.8558 101.873 19.9135C102.079 19.9712 102.269 20 102.442 20C102.698 20 102.93 19.9519 103.146 19.8558C103.323 19.7596 103.497 19.6217 103.673 19.439C103.85 19.2562 103.975 18.9741 104.053 18.5925C104.171 17.9994 104.246 17.2908 104.289 16.47C104.328 15.6492 104.328 14.9022 104.289 14.2321C104.289 14.059 104.263 13.8698 104.217 13.6582H104.21Z" fill="#5533CC"/>
<path d="M105.31 1.46524C105.291 1.0837 105.153 0.743839 104.901 0.445662C104.646 0.150691 104.197 0 103.552 0C102.986 0 102.586 0.144278 102.351 0.42963C102.115 0.714982 102.01 1.08049 102.027 1.51974C102.046 2.41748 102.066 3.24147 102.085 3.98852V6.12706C102.085 6.80677 102.076 7.45122 102.056 8.0636L101.997 9.90075C101.997 10.0354 102.01 10.1893 102.04 10.3592C102.069 10.5324 102.141 10.6863 102.259 10.8177C102.377 10.9716 102.544 11.0967 102.757 11.1896C102.973 11.2858 103.254 11.3339 103.608 11.3339C104.115 11.3339 104.502 11.1993 104.767 10.9332C105.029 10.667 105.183 10.3304 105.222 9.92961C105.34 8.76256 105.392 7.45122 105.382 5.9988C105.373 4.54639 105.346 3.03307 105.31 1.46524Z" fill="#5533CC"/>
<path d="M108.004 14.5911C110.839 14.8283 113.576 14.9566 116.225 14.979C118.87 15.0015 121.568 14.8732 124.315 14.5911C124.953 14.527 125.386 14.6135 125.618 14.8476C125.847 15.0848 125.975 15.3542 125.998 15.6555C126.021 16.0852 125.903 16.4026 125.651 16.6078C125.399 16.813 125.019 16.9348 124.515 16.9797C123.438 17.0887 122.18 17.1689 120.743 17.2202C119.306 17.2747 117.826 17.3003 116.31 17.3003C114.794 17.3003 113.255 17.2747 111.762 17.2202C110.269 17.1657 108.927 17.0855 107.742 16.9797C107.611 16.9797 107.46 16.9637 107.297 16.9316C107.133 16.8995 106.982 16.8386 106.851 16.7553C106.697 16.6687 106.57 16.5501 106.472 16.3994C106.373 16.2487 106.324 16.0435 106.324 15.787C106.324 15.5081 106.38 15.2804 106.488 15.1105C106.596 14.9374 106.74 14.8091 106.917 14.7225C107.071 14.6584 107.247 14.6135 107.444 14.5943C107.64 14.5718 107.827 14.5718 108.004 14.5943V14.5911ZM113.54 10.33C112.99 10.7821 112.398 10.9969 111.759 10.9745C111.121 10.952 110.649 10.7597 110.341 10.3942C109.968 9.96453 109.814 9.47398 109.88 8.92572C109.945 8.37746 110.286 7.88691 110.901 7.45728C111.648 6.94108 112.289 6.24855 112.83 5.37646C113.367 4.50437 113.756 3.66114 113.999 2.84356C114.064 2.58706 114.143 2.31774 114.231 2.03559C114.319 1.75665 114.441 1.48733 114.594 1.22763C114.725 0.99037 114.892 0.781967 115.089 0.599213C115.285 0.41646 115.518 0.304244 115.78 0.259357C116.241 0.195233 116.664 0.227296 117.047 0.355544C117.43 0.483792 117.734 0.71143 117.954 1.03205C118.173 1.35588 118.288 1.77269 118.301 2.28888C118.31 2.80508 118.173 3.41746 117.888 4.12924C117.734 4.49475 117.571 4.86026 117.394 5.22577L121.316 8.61472C121.535 8.82954 121.699 9.09245 121.81 9.40665C121.918 9.71766 121.81 10.0575 121.48 10.423C121.237 10.6795 120.923 10.7949 120.54 10.7629C120.157 10.7308 119.843 10.6058 119.6 10.391L116.042 7.58232C115.318 8.63716 114.483 9.55093 113.537 10.3268L113.54 10.33Z" fill="#5533CC"/>
</svg>
